<svg width="1023" height="1112" viewBox="0 0 1023 1112" fill="none" xmlns="http://www.w3.org/2000/svg">
<path opacity="1" d="M318.629 37.6942C198.693 138.217 180.107 328.298 98.8791 468.527C70.6029 517.322 34.0662 560.992 15.0036 615.123C-28.761 739.026 31.4716 879.572 112.09 977.981C150.533 1024.93 195.436 1067.94 249.765 1087.72C291.544 1102.94 336.341 1103.57 380.317 1103.97L1150.76 1111.9C1236.78 1112.77 1332.36 1109.62 1394.21 1043.21C1436.84 997.478 1454.15 930.692 1468.85 866.944C1486.9 788.613 1503.26 703.546 1475.17 628.94C1443.08 543.582 1361.94 495.21 1311.53 421.555C1229.72 302.223 1231.6 121.731 1127.41 26.4664C1078.78 -17.9959 1014.6 -35.4321 952.063 -44.1502C834.166 -60.6089 722.491 -29.5408 606.712 -33.8734C507.746 -37.572 400.73 -31.1259 318.629 37.6942Z" fill="#E7ECFF"/>
</svg>
